<mxfile host="app.diagrams.net" modified="2024-06-11T01:06:04.217Z" agent="Mozilla/5.0 (Macintosh; Intel Mac OS X 10_15_7) AppleWebKit/537.36 (KHTML, like Gecko) Chrome/125.0.0.0 Safari/537.36" version="24.5.2" etag="b86LgdmJ80wVDC9JBd6s" type="github">
  <diagram name="第 1 页" id="Z4ITSrSQIr3gGmsO1aMu">
    <mxGraphModel>
      <root>
        <mxCell id="0" />
        <mxCell id="1" parent="0" />
      </root>
    </mxGraphModel>
  </diagram>
</mxfile>
